<svg width="106" height="56" viewBox="0 0 106 56" fill="none" xmlns="http://www.w3.org/2000/svg">
<rect width="106" height="56" fill="black"/>
<rect y="11" width="32" height="32" fill="white"/>
<rect x="74" y="11" width="32" height="32" fill="white"/>
<rect x="37" y="11" width="32" height="32" fill="white"/>
<path d="M98.345 23.7109H94.301C94.2271 23.1877 94.0763 22.723 93.8485 22.3168C93.6208 21.9044 93.3284 21.5535 92.9714 21.2642C92.6144 20.9749 92.202 20.7533 91.7342 20.5994C91.2725 20.4455 90.7709 20.3686 90.2292 20.3686C89.2505 20.3686 88.398 20.6117 87.6717 21.098C86.9454 21.5781 86.3822 22.2798 85.9821 23.2031C85.582 24.1203 85.3819 25.2344 85.3819 26.5455C85.3819 27.8935 85.582 29.026 85.9821 29.9432C86.3883 30.8603 86.9546 31.5528 87.6809 32.0206C88.4073 32.4884 89.2475 32.7223 90.2015 32.7223C90.737 32.7223 91.2325 32.6515 91.688 32.5099C92.1497 32.3684 92.559 32.1622 92.916 31.8913C93.273 31.6143 93.5685 31.2789 93.8024 30.8849C94.0424 30.491 94.2086 30.0417 94.301 29.5369L98.345 29.5554C98.2404 30.4233 97.9788 31.2604 97.5602 32.0668C97.1478 32.867 96.5907 33.584 95.889 34.218C95.1935 34.8459 94.3625 35.3445 93.3961 35.7138C92.4359 36.0769 91.3495 36.2585 90.1369 36.2585C88.4503 36.2585 86.9423 35.8769 85.6127 35.1136C84.2894 34.3504 83.243 33.2455 82.4735 31.799C81.7103 30.3525 81.3287 28.6013 81.3287 26.5455C81.3287 24.4834 81.7164 22.7292 82.492 21.2827C83.2676 19.8362 84.3201 18.7344 85.6497 17.9773C86.9792 17.214 88.475 16.8324 90.1369 16.8324C91.2325 16.8324 92.2482 16.9863 93.1838 17.294C94.1255 17.6018 94.9596 18.0511 95.6859 18.642C96.4122 19.2268 97.0031 19.9439 97.4586 20.7933C97.9203 21.6428 98.2157 22.6153 98.345 23.7109Z" fill="black"/>
<path d="M46.661 37V18.0909H54.2321C55.6232 18.0909 56.7834 18.2971 57.7129 18.7095C58.6423 19.1219 59.341 19.6944 59.8088 20.4268C60.2766 21.1532 60.5105 21.9903 60.5105 22.9382C60.5105 23.6768 60.3627 24.3262 60.0673 24.8864C59.7718 25.4403 59.3656 25.8958 58.8485 26.2528C58.3377 26.6037 57.7529 26.853 57.0943 27.0007V27.1854C57.8145 27.2161 58.4885 27.4193 59.1163 27.7947C59.7503 28.1702 60.2643 28.6965 60.6582 29.3736C61.0521 30.0445 61.2491 30.8447 61.2491 31.7741C61.2491 32.7775 60.9998 33.6731 60.5012 34.4609C60.0088 35.2427 59.2794 35.8613 58.313 36.3168C57.3467 36.7723 56.1556 37 54.7399 37H46.661ZM50.6589 33.7315H53.9181C55.0323 33.7315 55.8448 33.5192 56.3556 33.0945C56.8665 32.6636 57.122 32.0911 57.122 31.3771C57.122 30.8539 56.9958 30.3923 56.7434 29.9922C56.4911 29.5921 56.131 29.2782 55.6632 29.0504C55.2015 28.8227 54.6506 28.7088 54.0105 28.7088H50.6589V33.7315ZM50.6589 26.0036H53.6227C54.1705 26.0036 54.6568 25.9081 55.0815 25.7173C55.5124 25.5204 55.8509 25.2434 56.0971 24.8864C56.3495 24.5294 56.4757 24.1016 56.4757 23.603C56.4757 22.9197 56.2325 22.3688 55.7463 21.9503C55.2662 21.5317 54.5829 21.3224 53.6966 21.3224H50.6589V26.0036Z" fill="black"/>
<path d="M12.661 37V18.0909H20.2321C21.6232 18.0909 22.7834 18.2971 23.7129 18.7095C24.6423 19.1219 25.341 19.6944 25.8088 20.4268C26.2766 21.1532 26.5105 21.9903 26.5105 22.9382C26.5105 23.6768 26.3627 24.3262 26.0673 24.8864C25.7718 25.4403 25.3656 25.8958 24.8485 26.2528C24.3377 26.6037 23.7529 26.853 23.0943 27.0007V27.1854C23.8145 27.2161 24.4885 27.4193 25.1163 27.7947C25.7503 28.1702 26.2643 28.6965 26.6582 29.3736C27.0521 30.0445 27.2491 30.8447 27.2491 31.7741C27.2491 32.7775 26.9998 33.6731 26.5012 34.4609C26.0088 35.2427 25.2794 35.8613 24.313 36.3168C23.3467 36.7723 22.1556 37 20.7399 37H12.661ZM16.6589 33.7315H19.9181C21.0323 33.7315 21.8448 33.5192 22.3556 33.0945C22.8665 32.6636 23.122 32.0911 23.122 31.3771C23.122 30.8539 22.9958 30.3923 22.7434 29.9922C22.4911 29.5921 22.131 29.2782 21.6632 29.0504C21.2015 28.8227 20.6506 28.7088 20.0105 28.7088H16.6589V33.7315ZM16.6589 26.0036H19.6227C20.1705 26.0036 20.6568 25.9081 21.0815 25.7173C21.5124 25.5204 21.8509 25.2434 22.0971 24.8864C22.3495 24.5294 22.4757 24.1016 22.4757 23.603C22.4757 22.9197 22.2325 22.3688 21.7463 21.9503C21.2662 21.5317 20.5829 21.3224 19.6966 21.3224H16.6589V26.0036Z" fill="black"/>
</svg>
